<?xml version="1.0" standalone="no"?>
<!DOCTYPE svg PUBLIC "-//W3C//DTD SVG 20010904//EN"
 "http://www.w3.org/TR/2001/REC-SVG-20010904/DTD/svg10.dtd">
<svg version="1.0" xmlns="http://www.w3.org/2000/svg"
 width="500.000000pt" height="500.000000pt" viewBox="0 0 500.000000 500.000000"
 preserveAspectRatio="xMidYMid meet">
<metadata>
Created by potrace 1.11, written by Peter Selinger 2001-2013
</metadata>
<g transform="translate(0.000000,500.000000) scale(0.100000,-0.100000)"
fill="#000000" stroke="none">
<path d="M0 2500 l0 -2500 2500 0 2500 0 0 2500 0 2500 -2500 0 -2500 0 0
-2500z m2720 2421 c36 -4 58 -10 50 -14 -56 -24 -215 -67 -251 -67 -24 0 -89
-7 -144 -15 -436 -62 -849 -269 -1160 -580 -320 -319 -519 -726 -586 -1195
-18 -126 -15 -463 5 -590 93 -594 429 -1085 949 -1387 42 -24 77 -46 77 -48 0
-1 -11 -27 -24 -56 -13 -30 -33 -85 -46 -124 -12 -38 -24 -71 -25 -73 -6 -7
-147 71 -245 135 -536 354 -891 928 -970 1568 -17 133 -14 429 5 565 125 886
774 1607 1644 1825 95 23 265 52 351 58 81 6 304 5 370 -2z m1414 -21 c66 -33
172 -140 219 -220 51 -89 87 -207 94 -310 6 -94 -11 -259 -30 -296 -12 -23
-16 -20 -104 99 -123 165 -266 321 -412 451 -66 60 -121 116 -121 124 0 22 56
102 92 131 70 56 174 65 262 21z m-799 -125 c279 -112 530 -278 745 -495 227
-229 356 -461 400 -720 21 -121 24 -403 6 -535 -59 -440 -267 -842 -607 -1171
-204 -196 -454 -363 -984 -654 -349 -192 -591 -342 -580 -360 9 -14 231 -20
350 -10 290 25 603 114 852 241 614 316 1039 916 1128 1596 19 146 19 427 0
562 -8 57 -13 106 -12 108 6 5 47 -182 64 -291 23 -144 22 -464 -1 -620 -58
-393 -226 -776 -474 -1078 -141 -173 -370 -371 -562 -488 -450 -273 -1007
-376 -1525 -280 l-110 20 -63 -67 c-90 -98 -180 -228 -263 -382 l-74 -136 -3
130 c-14 559 199 1067 609 1460 184 175 336 283 779 550 806 486 1124 751
1275 1060 97 200 98 375 1 570 -131 263 -419 510 -769 659 -259 111 -561 180
-908 209 l-144 12 155 52 c186 62 317 98 425 116 75 13 84 12 150 -8 39 -12
102 -34 140 -50z m-460 -279 c538 -87 981 -310 1204 -606 60 -80 135 -219 147
-275 7 -28 4 -26 -33 20 -197 248 -572 453 -1006 549 -305 69 -544 96 -834 96
-300 0 -613 -38 -821 -100 -53 -16 -98 -27 -100 -26 -5 6 146 99 268 166 225
124 303 153 505 185 122 19 529 14 670 -9z"/>
<path d="M4182 2683 c-82 -111 -241 -281 -370 -397 -251 -225 -482 -397 -952
-710 -173 -115 -369 -250 -435 -300 -224 -170 -431 -397 -549 -602 -45 -78
-136 -289 -136 -316 0 -7 23 25 51 72 118 196 316 408 574 615 190 153 341
260 730 518 171 113 360 245 420 293 211 168 422 392 553 586 76 114 182 308
168 308 -2 0 -26 -30 -54 -67z"/>
</g>
</svg>
